<svg width="216" height="186" viewBox="0 0 216 186" fill="none" xmlns="http://www.w3.org/2000/svg">
<path d="M110.462 51C91.1965 51 89.7037 63.5041 89.7037 67.3303V70.0647C90.4196 70.2973 91.1305 70.5394 91.8973 70.8242C95.4213 72.1249 100.758 74.0903 110.421 74.0903C118.388 74.0903 123.593 72.3006 127.402 70.9761C128.752 70.5062 129.991 70.0409 131.22 69.7229V67.3303C131.22 59.4405 125.777 51 110.462 51ZM134.754 71.6597C132.794 71.6597 130.814 72.3765 128.295 73.2548C124.314 74.641 118.861 76.5208 110.421 76.5208C100.266 76.5208 94.6698 74.4748 90.963 73.1029C88.9166 72.3481 87.3018 71.7357 85.682 71.7357C84.0825 71.7357 82.62 72.3386 81.1322 73.5966C78.5171 75.8088 77.4305 79.0416 78.2886 82.0276C78.9284 84.2635 81.2541 88.2226 89.4193 89.8509C89.5107 89.8699 89.5716 89.8889 89.663 89.8889C89.9575 89.8889 90.2419 89.7987 90.4755 89.623C90.7802 89.3952 90.963 89.0391 90.963 88.6736C90.963 84.8094 98.0872 82.5972 110.503 82.5972C122.111 82.5972 129.92 84.9661 129.92 88.5217C129.92 88.8872 130.103 89.2433 130.408 89.4711C130.717 89.699 131.119 89.8177 131.505 89.737C139.588 88.0755 141.945 84.3015 142.635 82.2174C143.539 79.4878 142.742 76.5303 140.482 74.2802C138.7 72.5047 136.872 71.6597 134.754 71.6597Z" fill="#6B21A8"/>
<g filter="url(#filter0_d_103_413)">
<path d="M122.776 97.769C120.861 97.7371 119.101 97.7442 117.17 97.7584C116.961 97.7584 116.869 97.6786 116.889 97.4569C116.895 97.3629 116.889 97.2672 116.889 97.1732C116.889 93.208 116.895 89.2376 116.879 85.2689C116.879 84.877 116.977 84.767 117.349 84.7741C119.217 84.8025 120.471 84.7883 122.192 84.7777C123.199 84.7741 123.199 84.7777 123.199 85.8576C123.199 89.672 123.193 93.4811 123.206 97.2938C123.208 97.6484 123.143 97.7761 122.776 97.769ZM101.442 97.769C99.557 97.7371 97.7957 97.7442 95.8404 97.7584C95.6263 97.7584 95.5377 97.6786 95.5544 97.4569C95.5645 97.3629 95.5594 97.2672 95.5594 97.1732C95.5594 93.208 95.5611 89.2376 95.5477 85.2689C95.5477 84.877 95.6464 84.767 96.0144 84.7741C97.9161 84.8025 99.2877 84.7883 101.042 84.7777C101.869 84.7741 101.869 84.7777 101.869 85.6714C101.869 89.5479 101.862 93.4191 101.875 97.2938C101.875 97.6484 101.81 97.7761 101.442 97.769V97.769ZM131.683 81.5591C125.897 81.5733 120.112 81.5733 114.326 81.5556C113.911 81.5556 113.846 81.6939 113.849 82.0893C113.87 83.9318 113.853 85.7778 113.866 87.6203C113.87 87.9661 113.821 88.1257 113.438 88.108C112.697 88.0725 111.951 88.0796 111.21 88.1044C110.887 88.1186 110.815 88.0033 110.819 87.6788C110.832 85.8009 110.812 83.9283 110.835 82.0503C110.839 81.6513 110.733 81.5591 110.369 81.5591C104.566 81.5733 98.7675 81.5733 92.9669 81.5626C92.6273 81.5591 92.5153 81.6389 92.5186 82.0237C92.5387 83.9141 92.522 85.8062 92.532 87.7001C92.5353 87.9945 92.4768 88.108 92.169 88.1062C90.2639 88.0885 88.3639 88.092 86.4587 88.0885C85.5672 88.092 84.6791 88.1026 83.7859 88.0956C83.535 88.092 83.4163 88.1505 83.4163 88.4555C83.4263 91.4312 83.4263 94.4033 83.4163 97.3771C83.4163 97.6608 83.4982 97.7619 83.7725 97.7548C84.6607 97.7406 85.5522 97.7513 86.442 97.7548C86.4487 95.7669 86.4654 93.7826 86.4487 91.7947C86.4454 91.3922 86.5558 91.3035 86.9204 91.3053C88.6432 91.3283 90.3676 91.3283 92.0938 91.3053C92.45 91.3035 92.5387 91.4117 92.5353 91.7787C92.522 94.843 92.5253 97.8931 92.5253 100.957C93.5372 100.968 94.5508 100.98 95.5628 100.989C95.6514 100.982 95.7384 100.972 95.8304 100.972H110.459C110.58 100.972 110.698 100.989 110.815 101L110.825 100.959C110.825 97.9002 110.832 94.8466 110.819 91.7876C110.815 91.4312 110.887 91.2929 111.254 91.3088C111.979 91.3443 112.71 91.3443 113.436 91.3088C113.813 91.2911 113.868 91.44 113.868 91.7894C113.854 94.8501 113.861 97.902 113.865 100.961C114.876 100.972 115.89 100.982 116.905 100.996C117.497 100.986 118.091 100.972 118.685 100.972C122.164 100.977 125.643 100.982 129.122 100.989C130.134 100.98 131.148 100.968 132.16 100.957C132.156 94.6639 132.153 88.374 132.166 82.0805C132.166 81.6744 132.084 81.5556 131.683 81.5591V81.5591Z" fill="#6B21A8"/>
</g>
<defs>
<filter id="filter0_d_103_413" x="0.41626" y="0.555542" width="214.75" height="185.444" filterUnits="userSpaceOnUse" color-interpolation-filters="sRGB">
<feFlood flood-opacity="0" result="BackgroundImageFix"/>
<feColorMatrix in="SourceAlpha" type="matrix" values="0 0 0 0 0 0 0 0 0 0 0 0 0 0 0 0 0 0 127 0" result="hardAlpha"/>
<feOffset dy="2"/>
<feGaussianBlur stdDeviation="41.5"/>
<feComposite in2="hardAlpha" operator="out"/>
<feColorMatrix type="matrix" values="0 0 0 0 0.87451 0 0 0 0 0.772549 0 0 0 0 0.560784 0 0 0 0.4 0"/>
<feBlend mode="normal" in2="BackgroundImageFix" result="effect1_dropShadow_103_413"/>
<feBlend mode="normal" in="SourceGraphic" in2="effect1_dropShadow_103_413" result="shape"/>
</filter>
</defs>
</svg>
